name D:\school\WTK\thesis\model\3dpredictsim\Results\Batchsim_tmt_linear_v2\Pog_s1_tmt_bCst_d00_k2000_ig24_act.mot
datacolumns 128
datarows 4
range 0.00000000 0.03528133
endheader
time	pelvis_tilt	pelvis_list	pelvis_rotation	pelvis_tx	pelvis_ty	pelvis_tz	hip_flexion_l	hip_adduction_l	hip_rotation_l	hip_flexion_r	hip_adduction_r	hip_rotation_r	knee_angle_l	knee_angle_r	ankle_angle_l	ankle_angle_r	subtalar_angle_l	subtalar_angle_r	tmt_angle_l	tmt_angle_r	mtp_angle_l	mtp_angle_r	lumbar_extension	lumbar_bending	lumbar_rotation	arm_flex_l	arm_add_l	arm_rot_l	arm_flex_r	arm_add_r	arm_rot_r	elbow_flex_l	elbow_flex_r	pro_sup_l	pro_sup_r	glut_med1_l/activation	glut_med2_l/activation	glut_med3_l/activation	glut_min1_l/activation	glut_min2_l/activation	glut_min3_l/activation	semimem_l/activation	semiten_l/activation	bifemlh_l/activation	bifemsh_l/activation	sar_l/activation	add_long_l/activation	add_brev_l/activation	add_mag1_l/activation	add_mag2_l/activation	add_mag3_l/activation	tfl_l/activation	pect_l/activation	grac_l/activation	glut_max1_l/activation	glut_max2_l/activation	glut_max3_l/activation	iliacus_l/activation	psoas_l/activation	quad_fem_l/activation	gem_l/activation	peri_l/activation	rect_fem_l/activation	vas_med_l/activation	vas_int_l/activation	vas_lat_l/activation	med_gas_l/activation	lat_gas_l/activation	soleus_l/activation	tib_post_l/activation	flex_dig_l/activation	flex_hal_l/activation	tib_ant_l/activation	per_brev_l/activation	per_long_l/activation	per_tert_l/activation	ext_dig_l/activation	ext_hal_l/activation	ercspn_l/activation	intobl_l/activation	extobl_l/activation	glut_med1_r/activation	glut_med2_r/activation	glut_med3_r/activation	glut_min1_r/activation	glut_min2_r/activation	glut_min3_r/activation	semimem_r/activation	semiten_r/activation	bifemlh_r/activation	bifemsh_r/activation	sar_r/activation	add_long_r/activation	add_brev_r/activation	add_mag1_r/activation	add_mag2_r/activation	add_mag3_r/activation	tfl_r/activation	pect_r/activation	grac_r/activation	glut_max1_r/activation	glut_max2_r/activation	glut_max3_r/activation	iliacus_r/activation	psoas_r/activation	quad_fem_r/activation	gem_r/activation	peri_r/activation	rect_fem_r/activation	vas_med_r/activation	vas_int_r/activation	vas_lat_r/activation	med_gas_r/activation	lat_gas_r/activation	soleus_r/activation	tib_post_r/activation	flex_dig_r/activation	flex_hal_r/activation	tib_ant_r/activation	per_brev_r/activation	per_long_r/activation	per_tert_r/activation	ext_dig_r/activation	ext_hal_r/activation	ercspn_r/activation	intobl_r/activation	extobl_r/activation	
          0.00000000	         -0.18592628	          1.61363064	          9.67193882	          0.00000000	          0.87734866	         -0.00423104	        -18.11676232	         -0.20497770	          6.65406003	         29.79662327	         -3.16420906	          0.52369784	        -15.18950179	        -15.29355960	        -22.65826958	        -30.37388997	          4.74446286	          1.10756887	          0.43822820	         -0.02162164	         39.66974717	         -0.54367143	          0.95476060	         -5.18573040	         -2.43189464	          1.67761696	        -13.51303641	          9.56888348	        -19.77520226	        -13.46039104	         15.40830130	         33.08587961	         23.01229537	         86.51662706	         86.51662706	          0.17238494	          0.05000128	          0.05000311	          0.17304092	          0.09545183	          0.05000143	          0.05000462	          0.05000097	          0.05000154	          0.05000055	          0.07355654	          0.29821826	          0.24816871	          0.24014668	          0.05001511	          0.05000351	          0.13044385	          0.16090900	          0.07151469	          0.05000648	          0.05000393	          0.05000328	          0.29780402	          0.44721389	          0.07531450	          0.05985745	          0.05288139	          0.17502723	          0.07729724	          0.08578815	          0.06811386	          0.05000025	          0.07907644	          0.05000017	          0.11732142	          0.09298191	          0.10986596	          0.13224351	          0.24989045	          0.18724179	          0.54126486	          0.50622401	          0.14735199	          0.05702677	          0.05000145	          0.05348663	          0.06640087	          0.08902084	          0.12997027	          0.05979922	          0.05977565	          0.05587309	          0.12062798	          0.07805329	          0.09214829	          0.09231925	          0.06221519	          0.09461954	          0.12236541	          0.18343633	          0.18194836	          0.14245159	          0.05000086	          0.05025449	          0.11474821	          0.09789320	          0.12762528	          0.16453303	          0.08727139	          0.08554526	          0.13042327	          0.05001929	          0.08601127	          0.05000021	          0.05000051	          0.05000060	          0.05000052	          0.05980096	          0.05980111	          0.05785655	          0.05875072	          0.05980008	          0.05978959	          0.05000029	          0.13628336	          0.08324690	          0.10549560	          0.08611913	          0.06359196	          0.05000009	          0.15325176	          0.12715835	
          0.01176044	         -0.15390170	          1.75593464	          9.65684922	          0.01987689	          0.87665337	         -0.00384453	        -17.76036856	         -0.29214803	          6.42025897	         29.38458587	         -3.03613387	          0.73608787	        -17.33817149	        -16.11668717	        -25.26303172	        -28.87894899	          5.29901952	          1.19391057	          0.34034778	         -0.01558910	         39.18656210	         -0.12967804	          1.24511122	         -4.98624368	         -2.52234491	          1.45629828	        -13.55609281	         10.09975626	        -21.56683515	        -13.44970890	         15.64711547	         33.67038901	         23.45843697	         86.51662706	         86.51662706	          0.14413376	          0.05000135	          0.05000119	          0.14468228	          0.07980890	          0.05001484	          0.05001082	          0.05000042	          0.05000062	          0.05000040	          0.06150215	          0.24934536	          0.29940821	          0.20079064	          0.05977656	          0.05001532	          0.10906619	          0.13453987	          0.05979855	          0.05001387	          0.05001225	          0.05004482	          0.24899852	          0.37392253	          0.06297191	          0.05004920	          0.05000098	          0.14634294	          0.06462956	          0.07172893	          0.05695116	          0.05000028	          0.06611729	          0.05000013	          0.09809425	          0.07774381	          0.09186069	          0.22000648	          0.28420562	          0.18860387	          0.69162776	          0.62427558	          0.12320344	          0.05681676	          0.05000005	          0.05106762	          0.15423593	          0.07743653	          0.14283574	          0.05000070	          0.05000065	          0.05000085	          0.10085891	          0.06526165	          0.07704662	          0.07718959	          0.05201922	          0.07911389	          0.10231188	          0.17084512	          0.16749812	          0.12688003	          0.05000030	          0.05000640	          0.09594325	          0.10794972	          0.13060709	          0.14325513	          0.07296900	          0.07152580	          0.19721721	          0.05000253	          0.07193719	          0.05000006	          0.08411434	          0.08987751	          0.08985433	          0.05000052	          0.05000068	          0.05000012	          0.05000005	          0.05000025	          0.05000012	          0.07152273	          0.11394870	          0.06960404	          0.34530373	          0.13523012	          0.16205765	          0.05000006	          0.12813614	          0.10631904	
          0.02352089	         -0.11531960	          1.88455686	          9.59772616	          0.03971196	          0.87537611	         -0.00344124	        -17.19789202	         -0.35114286	          6.20623901	         28.83151632	         -2.84492529	          0.96940721	        -19.92155017	        -17.43694479	        -27.21048149	        -26.55522067	          5.84897221	          1.32281639	          0.27553945	          0.06862753	         37.10076299	          1.22582571	          1.52316704	         -4.74891849	         -2.59897173	          1.21998893	        -13.61202874	         10.59271603	        -23.26361017	        -13.45814547	         15.98163724	         34.23640102	         23.75727223	         86.51662706	         86.51662706	          0.12051250	          0.05000044	          0.05000026	          0.12097121	          0.06672961	          0.05000049	          0.05913151	          0.05000098	          0.05000309	          0.05000021	          0.05142346	          0.21477056	          0.32984776	          0.44255740	          0.05007625	          0.14639069	          0.09119196	          0.11249182	          0.05000107	          0.05000500	          0.05000384	          0.05000350	          0.20819147	          0.31264237	          0.05265196	          0.05002280	          0.05000171	          0.12235957	          0.05404142	          0.06860802	          0.05903749	          0.05882085	          0.05995720	          0.05003864	          0.08201812	          0.06500307	          0.07680622	          0.25138405	          0.28761385	          0.17990635	          0.60519819	          0.76166332	          0.32127130	          0.06092477	          0.05980048	          0.07866485	          0.12895932	          0.15218280	          0.26638599	          0.05001140	          0.05003455	          0.08170198	          0.08432969	          0.05456631	          0.06441987	          0.06453944	          0.05000044	          0.06614852	          0.08554464	          0.14284638	          0.14004792	          0.10608649	          0.07152237	          0.05000316	          0.08021980	          0.12540408	          0.13670464	          0.11977800	          0.06101060	          0.05980394	          0.17338688	          0.05000521	          0.20796326	          0.07152295	          0.27226911	          0.26079737	          0.24885370	          0.05000002	          0.05000005	          0.05000001	          0.17485898	          0.05000072	          0.21871904	          0.05980126	          0.10230711	          0.09349686	          0.28871377	          0.11306799	          0.13549895	          0.05000002	          0.10713659	          0.08889498	
          0.03528133	         -0.07539519	          1.98976853	          9.49094694	          0.05929131	          0.87384823	         -0.00301237	        -16.41662019	         -0.39170550	          6.01011029	         28.01384641	         -2.59818034	          1.22597757	        -22.86473981	        -18.93584850	        -28.66081048	        -23.35034706	          6.38520716	          1.53745540	          0.20269541	          0.19821880	         33.46301584	          3.50698055	          1.77830295	         -4.46989695	         -2.66083246	          1.00812212	        -13.66287808	         11.06222814	        -24.79909747	        -13.47180379	         16.41547638	         34.71869178	         23.85095717	         86.51662706	         86.51662706	          0.12236108	          0.05000068	          0.05000036	          0.10114601	          0.05579392	          0.05000128	          0.07878977	          0.05000180	          0.07940299	          0.05000018	          0.05000091	          0.17957299	          0.41915551	          0.37002920	          0.14736543	          0.12240158	          0.07624707	          0.09405917	          0.05001070	          0.05000869	          0.05002058	          0.08553510	          0.17407208	          0.26140507	          0.05000259	          0.05000116	          0.05000025	          0.10230670	          0.07152031	          0.05736475	          0.07150743	          0.05000162	          0.05013208	          0.05980096	          0.06857664	          0.05435058	          0.06421904	          0.31441472	          0.27805212	          0.17512041	          0.50601791	          0.82266114	          0.26861993	          0.07664361	          0.05000017	          0.06577292	          0.19534962	          0.31614960	          0.50248993	          0.07182786	          0.08674373	          0.25215596	          0.07050944	          0.05000033	          0.05689092	          0.06920105	          0.07152155	          0.05530848	          0.07152528	          0.11943623	          0.11709687	          0.12871658	          0.05980100	          0.05974436	          0.06707351	          0.20996395	          0.18913858	          0.12431075	          0.05230061	          0.05000311	          0.14497239	          0.14312921	          0.35371633	          0.05980144	          0.22764842	          0.21805673	          0.20807044	          0.10230721	          0.10230769	          0.11356901	          0.23270268	          0.30811410	          0.23609057	          0.05000075	          0.08554057	          0.07817416	          0.24139802	          0.09453789	          0.11329281	          0.05000011	          0.08957854	          0.07432647	
